<svg width="16" height="16" viewBox="0 0 16 16" fill="none" xmlns="http://www.w3.org/2000/svg">
<path fill-rule="evenodd" clip-rule="evenodd" d="M4.406 1.342C5.40548 0.480135 6.68024 0.00413852 8 0C10.69 0 12.923 2 13.166 4.579C14.758 4.804 16 6.137 16 7.773C16 9.569 14.502 11 12.687 11H10C9.86739 11 9.74021 10.9473 9.64645 10.8536C9.55268 10.7598 9.5 10.6326 9.5 10.5C9.5 10.3674 9.55268 10.2402 9.64645 10.1464C9.74021 10.0527 9.86739 10 10 10H12.688C13.979 10 15 8.988 15 7.773C15 6.557 13.98 5.545 12.687 5.545H12.187V5.045C12.188 2.825 10.328 1 8 1C6.91988 1.00431 5.87684 1.39443 5.059 2.1C4.302 2.752 3.906 3.538 3.906 4.155V4.603L3.461 4.652C2.064 4.805 1 5.952 1 7.318C1 8.785 2.23 10 3.781 10H6C6.13261 10 6.25979 10.0527 6.35355 10.1464C6.44732 10.2402 6.5 10.3674 6.5 10.5C6.5 10.6326 6.44732 10.7598 6.35355 10.8536C6.25979 10.9473 6.13261 11 6 11H3.781C1.708 11 0 9.366 0 7.318C0 5.555 1.266 4.095 2.942 3.725C3.085 2.862 3.64 2.002 4.406 1.342V1.342Z" fill="currentColor"/>
<path fill-rule="evenodd" clip-rule="evenodd" d="M7.64614 4.14601C7.69259 4.09945 7.74776 4.0625 7.80851 4.0373C7.86925 4.01209 7.93438 3.99911 8.00014 3.99911C8.06591 3.99911 8.13103 4.01209 8.19178 4.0373C8.25252 4.0625 8.3077 4.09945 8.35414 4.14601L11.3541 7.14601C11.448 7.2399 11.5008 7.36723 11.5008 7.50001C11.5008 7.63278 11.448 7.76012 11.3541 7.85401C11.2603 7.9479 11.1329 8.00064 11.0001 8.00064C10.8674 8.00064 10.74 7.9479 10.6461 7.85401L8.50014 5.70701V14.5C8.50014 14.6326 8.44747 14.7598 8.3537 14.8536C8.25993 14.9473 8.13275 15 8.00014 15C7.86754 15 7.74036 14.9473 7.64659 14.8536C7.55282 14.7598 7.50014 14.6326 7.50014 14.5V5.70701L5.35414 7.85401C5.26026 7.9479 5.13292 8.00064 5.00014 8.00064C4.86737 8.00064 4.74003 7.9479 4.64614 7.85401C4.55226 7.76012 4.49951 7.63278 4.49951 7.50001C4.49951 7.36723 4.55226 7.2399 4.64614 7.14601L7.64614 4.14601Z" fill="currentColor"/>
</svg>
