<svg width="16" height="16" viewBox="0 0 16 16" fill="none" xmlns="http://www.w3.org/2000/svg">
<path d="M7.49996 1C7.63257 1 7.75975 1.05268 7.85352 1.14645C7.94728 1.24021 7.99996 1.36739 7.99996 1.5V2.428C8.15696 2.5 8.30396 2.601 8.43396 2.73L12.146 6.44C12.4269 6.72125 12.5846 7.1025 12.5846 7.5C12.5846 7.8975 12.4269 8.27875 12.146 8.56L7.07796 13.63C6.93651 13.7715 6.76818 13.8833 6.58287 13.9587C6.39757 14.0342 6.19905 14.0718 5.99898 14.0694C5.79892 14.067 5.60137 14.0245 5.41795 13.9446C5.23453 13.8647 5.06895 13.7489 4.93096 13.604L1.31096 9.803C1.04077 9.51941 0.89223 9.14137 0.897088 8.7497C0.901947 8.35803 1.05982 7.9838 1.33696 7.707L6.31296 2.73C6.50996 2.533 6.74796 2.402 6.99996 2.338V1.5C6.99996 1.36739 7.05264 1.24021 7.14641 1.14645C7.24018 1.05268 7.36736 1 7.49996 1V1ZM6.99996 4.5V3.457L2.45696 8H11.293L11.439 7.854C11.5327 7.76024 11.5854 7.63308 11.5854 7.5005C11.5854 7.36792 11.5327 7.24076 11.439 7.147L7.99996 3.71V4.5C7.99996 4.63261 7.94728 4.75979 7.85352 4.85355C7.75975 4.94732 7.63257 5 7.49996 5C7.36736 5 7.24018 4.94732 7.14641 4.85355C7.05264 4.75979 6.99996 4.63261 6.99996 4.5ZM1.95496 9C1.97634 9.04084 2.00326 9.07853 2.03496 9.112L5.65496 12.913C5.70094 12.9614 5.75614 13 5.81729 13.0267C5.87845 13.0534 5.94434 13.0676 6.01107 13.0685C6.07779 13.0693 6.14401 13.0568 6.20582 13.0316C6.26763 13.0065 6.32378 12.9692 6.37096 12.922L10.293 9H1.95496ZM12.921 10.222C12.8684 10.1621 12.8037 10.1141 12.7311 10.0812C12.6585 10.0483 12.5797 10.0313 12.5 10.0313C12.4203 10.0313 12.3415 10.0483 12.2689 10.0812C12.1963 10.1141 12.1315 10.1621 12.079 10.222L10.929 11.537C9.74596 12.887 10.705 15 12.5 15C14.295 15 15.253 12.887 14.072 11.537L12.922 10.222H12.921ZM11.681 12.195L12.5 11.259L13.319 12.195C13.935 12.899 13.435 14 12.5 14C11.565 14 11.065 12.899 11.681 12.195V12.195Z" fill="currentColor"/>
</svg>
