<svg width="32" height="32" viewBox="0 0 32 32" fill="none" xmlns="http://www.w3.org/2000/svg">
<path d="M16.0002 5.59999C13.2419 5.59999 10.5967 6.6957 8.64628 8.64608C6.69591 10.5965 5.6002 13.2417 5.6002 16C5.6002 16.3182 5.47377 16.6235 5.24872 16.8485C5.02368 17.0736 4.71846 17.2 4.4002 17.2C4.08194 17.2 3.77671 17.0736 3.55167 16.8485C3.32662 16.6235 3.2002 16.3182 3.2002 16C3.2002 13.4684 3.9509 10.9936 5.35738 8.88869C6.76387 6.78374 8.76295 5.14313 11.1018 4.17433C13.4407 3.20553 16.0144 2.95205 18.4974 3.44594C20.9803 3.93983 23.2611 5.15891 25.0512 6.94902C26.8413 8.73913 28.0604 11.0199 28.5542 13.5028C29.0481 15.9858 28.7947 18.5594 27.8259 20.8983C26.8571 23.2372 25.2164 25.2363 23.1115 26.6428C21.0065 28.0493 18.5318 28.8 16.0002 28.8C15.6819 28.8 15.3767 28.6736 15.1517 28.4485C14.9266 28.2235 14.8002 27.9182 14.8002 27.6C14.8002 27.2817 14.9266 26.9765 15.1517 26.7515C15.3767 26.5264 15.6819 26.4 16.0002 26.4C18.7584 26.4 21.4037 25.3043 23.3541 23.3539C25.3045 21.4035 26.4002 18.7582 26.4002 16C26.4002 13.2417 25.3045 10.5965 23.3541 8.64608C21.4037 6.6957 18.7584 5.59999 16.0002 5.59999V5.59999Z" fill="currentColor"/>
</svg>
