<svg width="32" height="32" viewBox="0 0 32 32" fill="none" xmlns="http://www.w3.org/2000/svg">
<path fill-rule="evenodd" clip-rule="evenodd" d="M8.812 2.684C10.811 0.96027 13.3605 0.00827703 16 0C21.38 0 25.846 4 26.332 9.158C29.516 9.608 32 12.274 32 15.546C32 19.138 29.004 22 25.374 22H20C19.7348 22 19.4804 21.8946 19.2929 21.7071C19.1054 21.5196 19 21.2652 19 21C19 20.7348 19.1054 20.4804 19.2929 20.2929C19.4804 20.1054 19.7348 20 20 20H25.376C27.958 20 30 17.976 30 15.546C30 13.114 27.96 11.09 25.374 11.09H24.374V10.09C24.376 5.65 20.656 2 16 2C13.8398 2.00863 11.7537 2.78887 10.118 4.2C8.604 5.504 7.812 7.076 7.812 8.31V9.206L6.922 9.304C4.128 9.61 2 11.904 2 14.636C2 17.57 4.46 20 7.562 20H12C12.2652 20 12.5196 20.1054 12.7071 20.2929C12.8946 20.4804 13 20.7348 13 21C13 21.2652 12.8946 21.5196 12.7071 21.7071C12.5196 21.8946 12.2652 22 12 22H7.562C3.416 22 0 18.732 0 14.636C0 11.11 2.532 8.19 5.884 7.45C6.17 5.724 7.28 4.004 8.812 2.684V2.684Z" fill="currentColor"/>
<path fill-rule="evenodd" clip-rule="evenodd" d="M15.2918 8.29199C15.3847 8.19886 15.495 8.12497 15.6165 8.07456C15.738 8.02415 15.8683 7.9982 15.9998 7.9982C16.1313 7.9982 16.2616 8.02415 16.3831 8.07456C16.5046 8.12497 16.6149 8.19886 16.7078 8.29199L22.7078 14.292C22.8956 14.4798 23.0011 14.7344 23.0011 15C23.0011 15.2655 22.8956 15.5202 22.7078 15.708C22.52 15.8958 22.2654 16.0012 21.9998 16.0012C21.7342 16.0012 21.4796 15.8958 21.2918 15.708L16.9998 11.414V29C16.9998 29.2652 16.8944 29.5196 16.7069 29.7071C16.5194 29.8946 16.265 30 15.9998 30C15.7346 30 15.4802 29.8946 15.2927 29.7071C15.1052 29.5196 14.9998 29.2652 14.9998 29V11.414L10.7078 15.708C10.52 15.8958 10.2654 16.0012 9.9998 16.0012C9.73425 16.0012 9.47957 15.8958 9.2918 15.708C9.10403 15.5202 8.99854 15.2655 8.99854 15C8.99854 14.7344 9.10403 14.4798 9.2918 14.292L15.2918 8.29199Z" fill="currentColor"/>
</svg>
